<?xml version="1.0" encoding="UTF-8"?>
<svg width="5mm" height="5mm" version="1.1" viewBox="0 0 5 5" xmlns="http://www.w3.org/2000/svg">
 <path transform="translate(.0009765 .000804)" d="m2.504 0.1074a0.2551 0.2551 0 0 0-0.2168 0.1328l-0.2246 0.4121-0.2637 0.3867a0.2551 0.2551 0 0 0 0.2227 0.4004l0.09766-0.00391v0.4746c-0.0889 0.0583-0.1577 0.1271-0.2148 0.2168l-0.5547 0.00195 0.00391-0.0918a0.2551 0.2551 0 0 0-0.3867-0.2285l-0.4121 0.25-0.4355 0.2148a0.2551 0.2551 0 0 0 0.001953 0.459l0.4375 0.2109 0.416 0.2461a0.2551 0.2551 0 0 0 0.3848-0.2324l-0.00391-0.07617 0.5547-0.00195c0.05648 0.08672 0.1225 0.1541 0.209 0.2109l0.00195 0.4785-0.1152-0.00391a0.2551 0.2551 0 0 0-0.2207 0.4004l0.2676 0.3887 0.2266 0.4062a0.2551 0.2551 0 0 0 0.4473-0.00195l0.2227-0.4102 0.2617-0.3906a0.2551 0.2551 0 0 0-0.2227-0.3965l-0.09961 0.00391-0.00391-0.4785c0.08494-0.05633 0.1512-0.1217 0.207-0.207l0.5527 0.00391-0.00586 0.09375a0.2551 0.2551 0 0 0 0.3848 0.2344l0.416-0.2461 0.4375-0.209a0.2551 0.2551 0 0 0 0.001954-0.459l-0.4316-0.2148-0.4102-0.2539a0.2551 0.2551 0 0 0-0.3906 0.2266l0.00391 0.07812-0.5547-0.00391c-0.05647-0.089-0.1231-0.1585-0.2109-0.2168v-0.4805l0.1172 0.005859a0.2551 0.2551 0 0 0 0.2227-0.3984l-0.2637-0.3867-0.2246-0.4121a0.2551 0.2551 0 0 0-0.2324-0.1328z" fill="#fff" opacity=".98" stroke-width=".2646"/>
 <path d="m2.512 0.3636-0.2305 0.4207-0.2717 0.3985 0.3659-0.01602v0.8785a0.4726 0.4726 0 0 0-0.3323 0.3379l-0.9592 0.004133 0.01602-0.3622-0.4218 0.2574-0.4451 0.2196 0.4474 0.2155 0.4244 0.2538-0.0186-0.3448 0.9586-0.003617a0.4726 0.4726 0 0 0 0.3302 0.3323l0.004652 0.8801-0.3845-0.01499 0.2733 0.3974 0.2331 0.4186 0.2284-0.4218 0.2694-0.4001-0.3654 0.01757-0.004652-0.8785a0.4726 0.4726 0 0 0 0.327-0.3318l0.9581 0.007753-0.02119 0.3617 0.4252-0.2517 0.448-0.214-0.444-0.2212-0.4207-0.2589 0.01395 0.3448-0.9592-0.008269a0.4726 0.4726 0 0 0-0.3276-0.3363v-0.8795l0.3839 0.01705-0.2712-0.399-0.2305-0.4207z" opacity=".98" stroke-width=".2646"/>
</svg>
