<?xml version="1.0" encoding="UTF-8"?>
<svg width="5mm" height="5mm" version="1.1" viewBox="0 0 5 5" xmlns="http://www.w3.org/2000/svg">
 <g transform="matrix(.16 0 0 .16 -29.44 -39.08)" fill="#fff" aria-label="↘">
  <path d="m190.5 247.2a1.351 1.351 0 0 0-0.9356 0.3945l-2.301 2.301a1.351 1.351 0 0 0 0 1.91l14.7 14.7h-3.139a1.351 1.351 0 0 0-1.35 1.35v3.299a1.351 1.351 0 0 0 1.35 1.35h11a1.351 1.351 0 0 0 0.9551-0.3945l1.199-1.199a1.351 1.351 0 0 0 0.3945-0.9805l-0.1992-10.8a1.351 1.351 0 0 0-1.35-1.324h-3.301a1.351 1.351 0 0 0-1.35 1.35v3.141l-14.7-14.7a1.351 1.351 0 0 0-0.9746-0.3945z" fill="#fff" stroke-width="1.6"/>
 </g>
 <g transform="matrix(.16 0 0 .16 -29.44 -39.08)" aria-label="↘">
  <path d="m211 270-1.2 1.2h-11v-3.3h6.4l-17-17 2.3-2.3 17 17v-6.4h3.3z" stroke-width="1.6"/>
 </g>
</svg>
