<?xml version="1.0" encoding="UTF-8" standalone="no"?>
<!-- Created with Inkscape (http://www.inkscape.org/) -->

<svg
   xmlns:dc="http://purl.org/dc/elements/1.1/"
   xmlns:cc="http://creativecommons.org/ns#"
   xmlns:rdf="http://www.w3.org/1999/02/22-rdf-syntax-ns#"
   xmlns:svg="http://www.w3.org/2000/svg"
   xmlns="http://www.w3.org/2000/svg"
   xmlns:sodipodi="http://sodipodi.sourceforge.net/DTD/sodipodi-0.dtd"
   xmlns:inkscape="http://www.inkscape.org/namespaces/inkscape"
   width="5mm"
   height="5mm"
   viewBox="0 0 5 5"
   version="1.1"
   id="svg8"
   inkscape:version="0.92.3 (2405546, 2018-03-11)"
   sodipodi:docname="rotate.svg">
  <defs
     id="defs2" />
  <sodipodi:namedview
     id="base"
     pagecolor="#ffffff"
     bordercolor="#666666"
     borderopacity="1.0"
     inkscape:pageopacity="0.0"
     inkscape:pageshadow="2"
     inkscape:zoom="7.9195959"
     inkscape:cx="7.2368975"
     inkscape:cy="15.032902"
     inkscape:document-units="mm"
     inkscape:current-layer="layer1"
     showgrid="false"
     inkscape:window-width="1366"
     inkscape:window-height="713"
     inkscape:window-x="0"
     inkscape:window-y="27"
     inkscape:window-maximized="1" />
  <metadata
     id="metadata5">
    <rdf:RDF>
      <cc:Work
         rdf:about="">
        <dc:format>image/svg+xml</dc:format>
        <dc:type
           rdf:resource="http://purl.org/dc/dcmitype/StillImage" />
        <dc:title />
      </cc:Work>
    </rdf:RDF>
  </metadata>
  <g
     inkscape:label="Layer 1"
     inkscape:groupmode="layer"
     id="layer1"
     transform="translate(0,-292)">
    <g
       aria-label="⤿"
       transform="matrix(0.1612629,0,0,0.1612629,-29.758441,252.70709)"
       style="font-style:normal;font-weight:normal;font-size:40px;line-height:1.25;font-family:sans-serif;letter-spacing:0px;word-spacing:0px;fill:#000000;fill-opacity:1;stroke:none;stroke-width:1.64069557"
       id="flowRoot815">
      <path
         d="m 194.75195,250.04687 q -1.07422,1.07422 -1.71875,2.57813 -0.625,1.48437 -0.625,3.125 0,1.64062 0.625,3.14453 0.64453,1.48438 1.71875,2.55859 1.07422,1.07422 2.5586,1.71875 1.5039,0.625 3.14453,0.625 1.64062,0 3.125,-0.625 1.5039,-0.64453 2.57812,-1.71875 l -7.32422,-1.99218 0.15625,-0.15625 11.46485,-0.0586 0.13672,0.13672 -0.0586,11.46485 -0.15625,0.15625 -1.99218,-7.32422 q -1.50391,1.5039 -3.57422,2.40234 -2.07032,0.87891 -4.35547,0.87891 -2.28516,0 -4.35547,-0.87891 -2.07031,-0.89844 -3.57422,-2.40234 -1.50391,-1.50391 -2.40234,-3.57422 -0.87891,-2.07031 -0.87891,-4.35547 0,-2.28516 0.87891,-4.35547 0.89843,-2.07031 2.40234,-3.57422 z"
         style="stroke-width:1.64069557"
         id="path1477" />
    </g>
  </g>
</svg>
