<?xml version="1.0" encoding="UTF-8"?>
<svg width="5mm" height="5mm" version="1.1" viewBox="0 0 5 5" xmlns="http://www.w3.org/2000/svg">
 <g transform="matrix(.16 0 0 .16 -29.45 -38.91)" fill="#fff" aria-label="⤿">
  <path d="m192.2 246.5a0.6654 0.6654 0 0 0-0.4609 0.1953c-1.063 1.063-1.911 2.338-2.541 3.809a0.6654 0.6654 0 0 0-2e-3 4e-3c-0.6201 1.48-0.9336 3.04-0.9336 4.658s0.3136 3.177 0.9336 4.656a0.6654 0.6654 0 0 0 2e-3 4e-3c0.6301 1.47 1.478 2.748 2.541 3.811s2.339 1.909 3.809 2.539a0.6654 0.6654 0 0 0 4e-3 2e-3c1.48 0.62 3.04 0.9336 4.658 0.9336s3.177-0.3136 4.656-0.9336a0.6654 0.6654 0 0 0 4e-3 -2e-3c1.116-0.4782 2.082-1.122 2.967-1.85l1.73 6.314a0.6654 0.6654 0 0 0 1.113 0.2949l0.1602-0.1602a0.6654 0.6654 0 0 0 0.1953-0.4668l0.0586-11a0.6654 0.6654 0 0 0-0.1992-0.4785l-0.1406-0.1387a0.6654 0.6654 0 0 0-0.4707-0.1914l-11 0.0586a0.6654 0.6654 0 0 0-0.4668 0.1953l-0.1602 0.1602a0.6654 0.6654 0 0 0 0.2949 1.113l5.891 1.613c-0.4179 0.28-0.7769 0.6175-1.27 0.8281-0.9224 0.381-1.866 0.5703-2.846 0.5703-0.9803 0-1.922-0.1887-2.846-0.5703a0.6654 0.6654 0 0 0-6e-3 -2e-3c-0.9212-0.3685-1.706-0.8826-2.375-1.551l-2e-3 -2e-3c-0.6423-0.6687-1.159-1.458-1.555-2.383v-2e-3c-0.381-0.9224-0.5703-1.866-0.5703-2.846 0-0.9803 0.1887-1.922 0.5703-2.846a0.6654 0.6654 0 0 0 2e-3 -6e-3c0.3688-0.9221 0.8836-1.708 1.553-2.377a0.6654 0.6654 0 0 0 0-0.9414l-2.818-2.818a0.6654 0.6654 0 0 0-0.4805-0.1953z" fill="#fff" stroke-width="1.6"/>
 </g>
 <g transform="matrix(.16 0 0 .16 -29.44 -38.91)" aria-label="⤿">
  <path d="m195 250q-1.1 1.1-1.7 2.6-0.62 1.5-0.62 3.1t0.62 3.1q0.64 1.5 1.7 2.6 1.1 1.1 2.6 1.7 1.5 0.62 3.1 0.62t3.1-0.62q1.5-0.64 2.6-1.7l-7.3-2 0.16-0.16 11-0.059 0.14 0.14-0.059 11-0.16 0.16-2-7.3q-1.5 1.5-3.6 2.4-2.1 0.88-4.4 0.88t-4.4-0.88q-2.1-0.9-3.6-2.4t-2.4-3.6q-0.88-2.1-0.88-4.4t0.88-4.4q0.9-2.1 2.4-3.6z" stroke-width="1.6"/>
 </g>
</svg>
