<?xml version="1.0" encoding="UTF-8"?>
<svg width="5mm" height="5mm" version="1.1" viewBox="0 0 5 5" xmlns="http://www.w3.org/2000/svg">
 <defs>
  <filter id="filter1699" x="-.13" y="-.12" width="1.3" color-interpolation-filters="sRGB">
   <feGaussianBlur stdDeviation="1.1132815"/>
  </filter>
 </defs>
 <g transform="translate(0,-292)">
  <g transform="matrix(.16 0 0 .16 -30 253)" fill="#fff" filter="url(#filter1699)" aria-label="⤿">
   <path d="m195 250q-1.1 1.1-1.7 2.6-0.62 1.5-0.62 3.1 0 1.6 0.62 3.1 0.64 1.5 1.7 2.6 1.1 1.1 2.6 1.7 1.5 0.62 3.1 0.62 1.6 0 3.1-0.62 1.5-0.64 2.6-1.7l-7.3-2 0.16-0.16 11-0.059 0.14 0.14-0.059 11-0.16 0.16-2-7.3q-1.5 1.5-3.6 2.4-2.1 0.88-4.4 0.88-2.3 0-4.4-0.88-2.1-0.9-3.6-2.4-1.5-1.5-2.4-3.6-0.88-2.1-0.88-4.4t0.88-4.4q0.9-2.1 2.4-3.6z" fill="#fff" stroke-width="1.6"/>
  </g>
  <g transform="matrix(.16 0 0 .16 -30 253)" aria-label="⤿">
   <path d="m195 250q-1.1 1.1-1.7 2.6-0.62 1.5-0.62 3.1 0 1.6 0.62 3.1 0.64 1.5 1.7 2.6 1.1 1.1 2.6 1.7 1.5 0.62 3.1 0.62 1.6 0 3.1-0.62 1.5-0.64 2.6-1.7l-7.3-2 0.16-0.16 11-0.059 0.14 0.14-0.059 11-0.16 0.16-2-7.3q-1.5 1.5-3.6 2.4-2.1 0.88-4.4 0.88-2.3 0-4.4-0.88-2.1-0.9-3.6-2.4-1.5-1.5-2.4-3.6-0.88-2.1-0.88-4.4t0.88-4.4q0.9-2.1 2.4-3.6z" stroke-width="1.6"/>
  </g>
 </g>
</svg>
