<?xml version="1.0" encoding="UTF-8"?>
<svg width="5mm" height="5mm" version="1.1" viewBox="0 0 5 5" xmlns="http://www.w3.org/2000/svg">
 <path d="m2.5 0.07617c-1.335-1.098e-5 -2.424 1.089-2.424 2.424-3.07e-6 1.335 1.089 2.424 2.424 2.424 1.335 1.08e-5 2.424-1.089 2.424-2.424 2.9e-6 -1.335-1.089-2.424-2.424-2.424zm0 0.7695c0.9178 0 1.654 0.7365 1.654 1.654 2.1e-6 0.9178-0.7365 1.654-1.654 1.654s-1.654-0.7365-1.654-1.654c-2.1e-6 -0.9178 0.7365-1.654 1.654-1.654zm-0.2129 0.1914a0.2212 0.2212 0 0 0-0.1992 0.2207v0.8047h-0.873a0.2212 0.2212 0 0 0-0.2207 0.2207v0.4316a0.2212 0.2212 0 0 0 0.2207 0.2207h0.873v0.8066a0.2212 0.2212 0 0 0 0.2207 0.2207h0.3828a0.2212 0.2212 0 0 0 0.2207-0.2207v-0.8066h0.873a0.2212 0.2212 0 0 0 0.2207-0.2207v-0.4316a0.2212 0.2212 0 0 0-0.2207-0.2207h-0.873v-0.8047a0.2212 0.2212 0 0 0-0.2207-0.2207h-0.3828a0.2212 0.2212 0 0 0-0.02148 0z" color="#000000" color-rendering="auto" dominant-baseline="auto" fill="#fff" image-rendering="auto" opacity=".98" shape-rendering="auto" solid-color="#000000" stroke-width=".2646" style="font-feature-settings:normal;font-variant-alternates:normal;font-variant-caps:normal;font-variant-ligatures:normal;font-variant-numeric:normal;font-variant-position:normal;isolation:auto;mix-blend-mode:normal;shape-padding:0;text-decoration-color:#000000;text-decoration-line:none;text-decoration-style:solid;text-indent:0;text-orientation:mixed;text-transform:none;white-space:normal"/>
 <path d="m2.5 0.2966c-1.215-1e-5 -2.204 0.9885-2.204 2.204-2.8e-6 1.215 0.9885 2.203 2.204 2.203 1.215 9.8e-6 2.203-0.988 2.203-2.203 2.6e-6 -1.215-0.988-2.204-2.203-2.204zm0 0.3281c1.037 0 1.875 0.8385 1.875 1.875 2.4e-6 1.037-0.838 1.875-1.875 1.875s-1.875-0.838-1.875-1.875c-2.38e-6 -1.037 0.8385-1.875 1.875-1.875zm-0.1917 0.6332v1.025h-1.094v0.4321h1.094v1.027h0.3829v-1.027h1.094v-0.4321h-1.094v-1.025h-0.3829z" color="#000000" color-rendering="auto" dominant-baseline="auto" image-rendering="auto" opacity=".98" shape-rendering="auto" solid-color="#000000" stroke-width=".2646" style="font-feature-settings:normal;font-variant-alternates:normal;font-variant-caps:normal;font-variant-ligatures:normal;font-variant-numeric:normal;font-variant-position:normal;isolation:auto;mix-blend-mode:normal;shape-padding:0;text-decoration-color:#000000;text-decoration-line:none;text-decoration-style:solid;text-indent:0;text-orientation:mixed;text-transform:none;white-space:normal"/>
</svg>
